<svg viewBox="0 0 1080 1080" fill="none" xmlns="http://www.w3.org/2000/svg">      <defs>  <filter id="filter" x="-20%" y="-20%" width="140%" height="140%" filterUnits="objectBoundingBox" primitiveUnits="userSpaceOnUse" color-interpolation-filters="linearRGB">    <feMorphology operator="dilate" radius="20 20" in="SourceAlpha" result="morphology"/>    <feFlood flood-color="#ffffff" flood-opacity="1" result="flood"/>    <feComposite in="flood" in2="morphology" operator="in" result="composite"/>    <feMerge result="merge">          <feMergeNode in="composite" result="mergeNode"/>      <feMergeNode in="SourceGraphic" result="mergeNode1"/>      </feMerge>  </filter></defs>      <g id="notion-avatar" filter="url(#filter)">        <g id="notion-avatar-face" fill="#ffffff">      <!--?xml version="1.0" encoding="UTF-8"?-->    <title>Face/ 9</title>    <g id="Face/-9" stroke="none" stroke-width="1" fill-rule="evenodd" stroke-linecap="round" stroke-linejoin="round">        <path d="M532,379 C664.54834,379 772,486.45166 772,619 C772,751.54834 704.54834,919 592,919 C506.683174,919 378.324367,822.776611 321.205121,718.475443 C318.188736,718.821948 315.115161,719 312,719 C267.81722,719 232,683.18278 232,639 C232,599.134956 261.158843,566.080325 299.312086,560.00055 C325.599297,455.979213 419.809919,379 532,379 Z M295.858895,624.545187 L304.141105,655.454813" id="Path" stroke="#000000" stroke-width="24"/>    </g>    </g><g id="notion-avatar-nose">      <g id="Nose/ 11"><path id="Path" fill-rule="evenodd" clip-rule="evenodd" d="M648.516 601C648.516 601 664.222 603.637 672 609.977C685.06 620.622 693.906 641.256 692.774 653.58C690.065 683.076 644 684.359 644 684.359C644 684.359 700 689.489 700 653.58C700 637.222 689.433 619.065 672 608.695C663.922 603.889 648.516 601 648.516 601Z" fill="black" stroke="black" stroke-width="6" stroke-linecap="round" stroke-linejoin="round"/></g>    </g><g id="notion-avatar-mouth">      <!--?xml version="1.0" encoding="UTF-8"?-->    <title>Mouth/ 7</title>    <g id="Mouth/-7" stroke="none" stroke-width="1" fill="none" fill-rule="evenodd" stroke-linecap="round" stroke-linejoin="round">        <path d="M559.810774,753.60177 C566.691716,738.132743 579.421458,738.132743 598,753.60177 L598.555602,753.14234 C616.832552,738.13429 629.377094,738.287434 636.189226,753.60177 C643.001358,768.916106 630.593059,783.900851 598.96433,798.556005 L598,799 C565.659574,784.20354 552.929833,769.070796 559.810774,753.60177 Z" id="Path" stroke="#000000" stroke-width="16" fill="#000000"/>    </g>    </g><g id="notion-avatar-eyes">      <g id="Eyes/ 13"><g id="Group 1"><g id="Group"><path id="Path" fill-rule="evenodd" clip-rule="evenodd" d="M534 524.531C534 524.531 562.569 539.132 586.169 536.615C609.769 534.097 599.832 520 599.832 520C599.832 520 614.738 534.601 593.622 539.132C572.506 543.664 534 524.531 534 524.531Z" fill="black" stroke="black" stroke-width="6" stroke-linecap="round" stroke-linejoin="round"/><path id="Path_2" d="M540 529L536 537" stroke="black" stroke-width="4" stroke-linecap="round" stroke-linejoin="round"/><path id="Path_3" d="M554 534L551 543" stroke="black" stroke-width="4" stroke-linecap="round" stroke-linejoin="round"/><path id="Path_4" d="M568 537L566 547" stroke="black" stroke-width="4" stroke-linecap="round" stroke-linejoin="round"/><path id="Path_5" d="M582 539L581 549" stroke="black" stroke-width="4" stroke-linecap="round" stroke-linejoin="round"/><path id="Path_6" d="M594 538L596 547" stroke="black" stroke-width="4" stroke-linecap="round" stroke-linejoin="round"/><path id="Path_7" d="M604 534L608 540" stroke="black" stroke-width="4" stroke-linecap="round" stroke-linejoin="round"/></g><g id="Group_2"><path id="Path_8" fill-rule="evenodd" clip-rule="evenodd" d="M672 524.531C672 524.531 700.569 539.132 724.169 536.615C747.769 534.097 737.832 520 737.832 520C737.832 520 752.738 534.601 731.622 539.132C710.506 543.664 672 524.531 672 524.531Z" fill="black" stroke="black" stroke-width="6" stroke-linecap="round" stroke-linejoin="round"/><path id="Path_9" d="M678 529L674 537" stroke="black" stroke-width="4" stroke-linecap="round" stroke-linejoin="round"/><path id="Path_10" d="M692 534L689 543" stroke="black" stroke-width="4" stroke-linecap="round" stroke-linejoin="round"/><path id="Path_11" d="M706 537L704 547" stroke="black" stroke-width="4" stroke-linecap="round" stroke-linejoin="round"/><path id="Path_12" d="M720 539L719 549" stroke="black" stroke-width="4" stroke-linecap="round" stroke-linejoin="round"/><path id="Path_13" d="M732 538L734 547" stroke="black" stroke-width="4" stroke-linecap="round" stroke-linejoin="round"/><path id="Path_14" d="M742 534L746 540" stroke="black" stroke-width="4" stroke-linecap="round" stroke-linejoin="round"/></g></g></g>    </g><g id="notion-avatar-eyebrows">      <!--?xml version="1.0" encoding="UTF-8"?-->    <title>Eyebrows/ 6</title>    <g id="Eyebrows/-6" stroke="none" stroke-width="1" fill="none" fill-rule="evenodd" stroke-linecap="round" stroke-linejoin="round">        <path d="M620,495.140162 C589.850248,491.823271 565.234864,491.823271 546.153846,495.140162 C527.072829,498.457053 511.688213,505.410333 500,516 C517.257672,497.488903 532.642287,487.058984 546.153846,484.710243 C559.665405,482.361502 584.280789,485.838142 620,495.140162 Z M658,495.140162 C693.719211,485.838142 718.334595,482.361502 731.846154,484.710243 C745.357713,487.058984 760.742328,497.488903 778,516 C766.311787,505.410333 750.927171,498.457053 731.846154,495.140162 C712.765136,491.823271 688.149752,491.823271 658,495.140162 Z" id="Combined-Shape" stroke="#000000" stroke-width="8" fill="#000000"/>    </g>    </g><g id="notion-avatar-glasses">      <!--?xml version="1.0" encoding="UTF-8"?-->    <title>Glasses/ 3</title>    <g id="Glasses/-3" stroke="none" stroke-width="1" fill="none" fill-rule="evenodd" stroke-linecap="round" stroke-linejoin="round">        <g id="Group" transform="translate(293.000000, 488.000000)" stroke="#000000" stroke-width="8">            <path d="M197.493245,10.4280671 C174.636102,27.3582996 188.604356,103.544346 244.477372,103.544346 C300.350388,103.544346 337.149222,42.6997481 325.747213,20.1024857 C314.345204,-2.49477675 220.350388,-6.50216547 197.493245,10.4280671 Z" id="Path"/>            <path d="M376.540864,10.4280671 C353.683721,27.3582996 367.651975,103.544346 423.524991,103.544346 C479.398007,103.544346 516.196841,42.6997481 504.794832,20.1024857 C493.392823,-2.49477675 399.398007,-6.50216547 376.540864,10.4280671 Z" id="Path" transform="translate(436.458153, 51.772173) scale(-1, 1) translate(-436.458153, -51.772173) "/>            <line x1="301.285714" y1="5.44186047" x2="392.714286" y2="5.44186047" id="Path"/>            <line x1="326.68254" y1="21.1627907" x2="367.31746" y2="21.1627907" id="Path"/>            <line x1="186.554557" y1="30.8015819" x2="1.25992802" y2="69.9860126" id="Path" transform="translate(94.259928, 50.646655) rotate(1.361411) translate(-94.259928, -50.646655) "/>        </g>    </g>    </g><g id="notion-avatar-hair">      <g id="Hairstyle/ 52"><path id="Path" fill-rule="evenodd" clip-rule="evenodd" d="M512.002 159.967C529.497 159.967 548.058 149.154 564.002 151C671.999 163.504 742.662 227.855 781.002 289.498C798.105 316.998 832.173 357.301 848.002 385C872.892 428.558 881.079 473.611 881.002 540C880.969 568.018 882.695 582.737 881.002 600C879.919 611.04 858.002 642 858.002 642C858.002 642 871.575 639.91 881.002 635C890.428 630.091 906.002 617 906.002 617C906.002 617 892.002 664 881.002 672C870.002 680 853.002 681 863.002 695C873.002 709 892.002 713.588 918.002 709C879.596 742.833 847.929 762.833 823.002 769C798.074 775.168 771.407 778.128 743.002 777.881L744.738 772.642C763.255 716.488 775.343 670.69 781.002 635.247C787.194 596.465 768.616 548.941 764.002 528.633C756.002 493.427 711.002 455 669.002 419C641.002 395 593.002 376.743 525.002 364.228L448.002 375.188C452.668 399.063 438.335 484 421.002 540C395.002 624 336.002 623.291 357.002 653.182C378.002 683.074 334.002 683 334.002 716C334.002 738 359.668 752.667 411.002 760C377.002 782 347.335 791.334 322.002 788C277.766 782.18 250.089 755.816 238.002 760C220.668 766 220.668 778.334 238.002 797C204.668 792.334 179.002 780 161.002 760C134.002 730 136.326 705.969 138.002 685C139.678 664.031 156.925 668.032 170.002 647.39C187.221 620.208 139.711 582.819 140.002 557.528C140.294 532.174 161.205 500.098 173.002 461.875C181.218 435.251 180.16 400.229 185.002 385.152C209.002 310.422 252.198 275.332 292.002 247.649C316.916 230.322 337.002 180.891 393.002 159.967C449.002 139.042 472.946 159.967 512.002 159.967Z" fill="black" stroke="black" stroke-width="12" stroke-linecap="round" stroke-linejoin="round"/></g>    </g><g id="notion-avatar-accessories">      <!--?xml version="1.0" encoding="UTF-8"?-->    <title>Accessories/ 0</title>    <g id="Accessories/-0" stroke="none" stroke-width="1" fill="none" fill-rule="evenodd"/>    </g><g id="notion-avatar-details">      <!--?xml version="1.0" encoding="UTF-8"?-->    <title>Details/ 0</title>    <g id="Details/-0" stroke="none" stroke-width="1" fill="none" fill-rule="evenodd"/>    </g><g id="notion-avatar-beard">      <!--?xml version="1.0" encoding="UTF-8"?-->    <title>Beard/ 0</title>    <g id="Beard/-0" stroke="none" stroke-width="1" fill="none" fill-rule="evenodd"/>    </g>      </g>      </svg>