<svg viewBox="0 0 1080 1080" fill="none" xmlns="http://www.w3.org/2000/svg">      <defs>  <filter id="filter" x="-20%" y="-20%" width="140%" height="140%" filterUnits="objectBoundingBox" primitiveUnits="userSpaceOnUse" color-interpolation-filters="linearRGB">    <feMorphology operator="dilate" radius="20 20" in="SourceAlpha" result="morphology"/>    <feFlood flood-color="#ffffff" flood-opacity="1" result="flood"/>    <feComposite in="flood" in2="morphology" operator="in" result="composite"/>    <feMerge result="merge">          <feMergeNode in="composite" result="mergeNode"/>      <feMergeNode in="SourceGraphic" result="mergeNode1"/>      </feMerge>  </filter></defs>      <g id="notion-avatar" filter="url(#filter)">        <g id="notion-avatar-face" fill="#ffffff">      <!--?xml version="1.0" encoding="UTF-8"?-->    <title>Face/ 11</title>    <g id="Face/-11" stroke="none" stroke-width="1" fill-rule="evenodd" stroke-linecap="round" stroke-linejoin="round">        <path d="M532,379 C664.54834,379 772,486.45166 772,619 C772,642.160109 783.234546,666.244677 777.453024,688.979248 C763.583554,743.517917 672,879 608,899 C513.514707,928.526654 373.476049,816.010833 320.189513,718.584987 C317.498129,718.859681 314.765451,719 312,719 C267.81722,719 232,683.18278 232,639 C232,599.134956 261.158843,566.080325 299.312086,560.00055 C325.599297,455.979213 419.809919,379 532,379 Z M295.858895,624.545187 L304.141105,655.454813" id="Path" stroke="#000000" stroke-width="24"/>    </g>    </g><g id="notion-avatar-nose">      <g id="Nose/ 12"><path id="Path" fill-rule="evenodd" clip-rule="evenodd" d="M648.516 575C648.516 575 659.222 580.698 667 589C673.643 596.091 676.296 606.295 680 617C683.578 627.342 695.556 636.07 695 644C692.29 682.626 644 684.16 644 684.16C644 684.16 696 684 700 643.855C701.005 633.771 688.451 626.971 684 617C679.168 606.177 677 594 669 588C660.881 581.911 648.516 575 648.516 575Z" fill="black" stroke="black" stroke-width="6" stroke-linecap="round" stroke-linejoin="round"/></g>    </g><g id="notion-avatar-mouth">      <!--?xml version="1.0" encoding="UTF-8"?-->    <title>Mouth/ 8</title>    <g id="Mouth/-8" stroke="none" stroke-width="1" fill="none" fill-rule="evenodd" stroke-linecap="round" stroke-linejoin="round">        <g id="Group" transform="translate(518.000000, 729.000000)" stroke="#000000" stroke-width="16">            <path d="M-3.69482223e-13,40.2906038 C11.1513858,37.2521964 19.1513858,34.588032 24,32.2981106 C28.8486142,30.0081891 35.9892516,25.8365332 45.4219123,19.7831427 C62.4309568,8.98264352 73.6236526,2.98203532 79,1.78131814 C84.3763474,0.580600965 91.3763474,2.51817509 100,7.59404051 C112,-1.12504304 123,-2.33602686 133,3.96108903 C143,10.2582049 145.333333,20.4304691 140,34.4778814 C145.333333,41.2593909 144.666667,48.0409003 138,54.8224097 C128,64.9946738 107,72.2605768 79,69.3542156 C66.6893996,68.0763924 52.3996983,62.8419921 34,54.8224097 C27.6667209,52.0620246 16.3333876,47.2180893 -3.69482223e-13,40.2906038 Z" id="Path"/>            <path d="M12,43 C54.2826578,36.3890991 82.9493244,32.7224324 98,32 C113.050676,31.2775676 126.050676,32.9442342 137,37" id="Path"/>        </g>    </g>    </g><g id="notion-avatar-eyes">      <!--?xml version="1.0" encoding="UTF-8"?-->    <title>Eyes/ 7</title>    <g id="Eyes/-7" stroke="none" stroke-width="1" fill="none" fill-rule="evenodd">        <path d="M570,516 C578.836556,516 586,526.745166 586,540 C586,553.254834 578.836556,564 570,564 C561.163444,564 554,553.254834 554,540 C554,526.745166 561.163444,516 570,516 Z M708,516 C716.836556,516 724,526.745166 724,540 C724,553.254834 716.836556,564 708,564 C699.163444,564 692,553.254834 692,540 C692,526.745166 699.163444,516 708,516 Z M568,527 C564.686292,527 562,529.686292 562,533 C562,536.313708 564.686292,539 568,539 C571.313708,539 574,536.313708 574,533 C574,529.686292 571.313708,527 568,527 Z M706,527 C702.686292,527 700,529.686292 700,533 C700,536.313708 702.686292,539 706,539 C709.313708,539 712,536.313708 712,533 C712,529.686292 709.313708,527 706,527 Z" id="Combined-Shape" fill="#000000"/>    </g>    </g><g id="notion-avatar-eyebrows">      <!--?xml version="1.0" encoding="UTF-8"?-->    <title>Eyebrows/ 8</title>    <g id="Eyebrows/-8" stroke="none" stroke-width="1" fill="none" fill-rule="evenodd" stroke-linecap="round" stroke-linejoin="round">        <g id="Group" transform="translate(530.000000, 490.000000)" stroke="#000000" stroke-width="16">            <path d="M64,10 C59.1947065,3.33333333 51.1947065,0 40,0 C28.8052935,0 15.4719602,3.33333333 0,10" id="Path"/>            <path d="M218,10 C213.194706,3.33333333 205.194706,0 194,0 C182.805294,0 169.47196,3.33333333 154,10" id="Path" transform="translate(186.000000, 5.000000) scale(-1, 1) translate(-186.000000, -5.000000) "/>        </g>    </g>    </g><g id="notion-avatar-glasses">      <!--?xml version="1.0" encoding="UTF-8"?-->    <title>Glasses/ 6</title>    <g id="Glasses/-6" stroke="none" stroke-width="1" fill="none" fill-rule="evenodd" stroke-linecap="round" stroke-linejoin="round">        <g id="Group" transform="translate(289.000000, 489.000000)" fill="#000000" stroke="#000000" stroke-width="4">            <path d="M507.197382,9.82478969 C513.43226,17.7007378 515.213654,62.5936419 486.711355,88.5842707 C469.404358,104.366146 429.38069,108.487745 402.985851,98.8230032 C386.082673,92.6337314 377.827731,74.7226245 375.444668,70.5905602 L375.374248,70.46959 C367.818365,57.6210186 359.693569,48.7969114 350.999861,43.9972684 C342.444422,48.7207266 334.439709,57.3419022 326.985986,69.8607952 L326.625752,70.46959 C324.338153,74.359588 316.088066,92.5712135 299.014149,98.8230032 C272.61931,108.487745 232.595642,104.366146 215.288645,88.5842707 C186.786346,62.5936419 188.56774,17.7007378 194.802618,9.82478969 C201.037496,1.94884159 243.790945,-3.56432208 278.528122,2.7364364 C313.265299,9.03719488 328.491531,25.281971 335.53272,27.9394703 C339.929408,29.5988766 344.89638,30.3949699 350.433636,30.3277503 L350.434736,30.3022547 L351,30.3179093 L351.565264,30.3022547 L351.566163,30.3277478 C357.1035,30.3949891 362.070539,29.5988966 366.46728,27.9394703 C373.508469,25.281971 388.734701,9.03719488 423.471878,2.7364364 C458.209055,-3.56432208 500.962504,1.94884159 507.197382,9.82478969 Z M209.053767,15.3379534 C189.458437,28.7270651 207.272374,75.1951589 225.977008,88.5842707 C244.681642,101.973382 289.216484,98.8230032 299.904846,91.7346499 C310.593209,84.6462966 334.642023,53.930099 326.625752,34.2402288 C318.60948,14.5503585 237.556067,1.16124678 209.053767,15.3379534 Z M492.946233,15.3379534 C464.443933,1.16124678 383.39052,14.5503585 375.374248,34.2402288 C367.357977,53.930099 391.406791,84.6462966 402.095154,91.7346499 C412.783516,98.8230032 457.318358,101.973382 476.022992,88.5842707 C494.727626,75.1951589 512.541563,28.7270651 492.946233,15.3379534 Z" id="Combined-Shape"/>            <polygon id="Path" points="199 20 4 52 0 61 199 41"/>        </g>    </g>    </g><g id="notion-avatar-hair">      <!--?xml version="1.0" encoding="UTF-8"?-->    <title>Hairstyle/ 23</title>    <g id="Hairstyle/-23" stroke="none" stroke-width="1" fill="none" fill-rule="evenodd" stroke-linecap="round" stroke-linejoin="round">        <path d="M425,196 C310,207 195,273 147,449 C99,625 172,871 181,929 C184.992032,954.726429 206.325365,982.726429 245,1013 C245.200048,1003.91039 246.866714,996.910389 250,992 C254.482715,984.974827 271.149382,995.641493 300,1024 C300.362042,1010.9005 301.362042,1004.23383 303,1004 C312.172314,1002.69058 329.838981,1012.69058 356,1034 C355.842315,1023.20358 356.842315,1017.87025 359,1018 C367.337025,1018.50135 381.003692,1028.83469 400,1049 C410,1020.33333 416,992 418,964 C422.08731,906.777664 371.10908,800.583946 359,788 C341.351402,769.6593 325.684735,746.6593 312,719 C258.666667,709.666667 232,683 232,639 C232,573 284,566 304,566 C324,566 333.617614,574.224729 349,588 C359.254924,597.183514 366.588257,609.516847 371,625 C398.333333,577.666667 416.333333,539.333333 425,510 C433.666667,480.666667 442.666667,442.333333 452,395 C478.180222,414.443429 496.846889,427.443429 508,434 C536.004641,450.463067 558.791358,457.829448 570,463 C576.596672,466.043048 541.16552,393.430455 546,395 C551.379054,396.746345 606.281754,478.779649 611,481 C628,489 649.949411,498.072787 675,504 C691.279294,507.851839 719.279294,511.851839 759,516 C765.666667,418 747.666667,343 705,291 C641,213 540,185 425,196 Z" id="Path" stroke="#000000" stroke-width="12" fill="#000000"/>    </g>    </g><g id="notion-avatar-accessories">      <!--?xml version="1.0" encoding="UTF-8"?-->    <title>Accessories/ 0</title>    <g id="Accessories/-0" stroke="none" stroke-width="1" fill="none" fill-rule="evenodd"/>    </g><g id="notion-avatar-details">      <!--?xml version="1.0" encoding="UTF-8"?-->    <title>Details/ 0</title>    <g id="Details/-0" stroke="none" stroke-width="1" fill="none" fill-rule="evenodd"/>    </g><g id="notion-avatar-beard">      <!--?xml version="1.0" encoding="UTF-8"?-->    <title>Beard/ 0</title>    <g id="Beard/-0" stroke="none" stroke-width="1" fill="none" fill-rule="evenodd"/>    </g>      </g>      </svg>