<?xml version="1.0" encoding="UTF-8"?>
<svg width="120" height="32" viewBox="0 0 120 32" fill="none" xmlns="http://www.w3.org/2000/svg">
  <g transform="translate(44, 4)">
    <!-- Google G -->
    <path fill="#FFFFFF" d="M16 4C9.373 4 4 9.373 4 16c0 6.627 5.373 12 12 12s12-5.373 12-12c0-6.627-5.373-12-12-12zm0 4.8c2.136 0 4.05.853 5.4 2.2L19 13.4c-.9-.9-2.1-1.4-3.4-1.4-2.873 0-5.2 2.327-5.2 5.2s2.327 5.2 5.2 5.2c2.4 0 4.2-1.4 4.7-3.4H16v-2.8h7.6c.1.5.2 1 .2 1.6 0 4.8-3.5 8.2-8.2 8.2-4.687 0-8.4-3.713-8.4-8.4s3.713-8.4 8.4-8.4z"/>
  </g>
</svg> 